<?xml version="1.0" encoding="UTF-8" standalone="no"?>
<!-- Created with Inkscape (http://www.inkscape.org/) -->

<svg
   width="2000mm"
   height="500mm"
   viewBox="0 0 2000 500"
   version="1.1"
   id="svg5"
   xml:space="preserve"
   inkscape:version="1.2.2 (732a01da63, 2022-12-09)"
   sodipodi:docname="displaygram-logo-long-BLUE.svg"
   xmlns:inkscape="http://www.inkscape.org/namespaces/inkscape"
   xmlns:sodipodi="http://sodipodi.sourceforge.net/DTD/sodipodi-0.dtd"
   xmlns:xlink="http://www.w3.org/1999/xlink"
   xmlns="http://www.w3.org/2000/svg"
   xmlns:svg="http://www.w3.org/2000/svg"><sodipodi:namedview
     id="namedview7"
     pagecolor="#ffffff"
     bordercolor="#000000"
     borderopacity="0.25"
     inkscape:showpageshadow="2"
     inkscape:pageopacity="0.0"
     inkscape:pagecheckerboard="0"
     inkscape:deskcolor="#d1d1d1"
     inkscape:document-units="mm"
     showgrid="false"
     inkscape:zoom="0.12534941"
     inkscape:cx="3781.4299"
     inkscape:cy="945.35747"
     inkscape:window-width="1920"
     inkscape:window-height="991"
     inkscape:window-x="-9"
     inkscape:window-y="-9"
     inkscape:window-maximized="1"
     inkscape:current-layer="g344" /><defs
     id="defs2"><linearGradient
       inkscape:collect="always"
       id="linearGradient412"><stop
         style="stop-color:#7ee6ff;stop-opacity:1;"
         offset="0"
         id="stop408" /><stop
         style="stop-color:#4da6ff;stop-opacity:1;"
         offset="0.5"
         id="stop1207" /></linearGradient><rect
       x="1208.3823"
       y="695.01725"
       width="730.5579"
       height="286.29972"
       id="rect186" /><rect
       x="1329.8128"
       y="533.60344"
       width="183.13309"
       height="64.170626"
       id="rect427" /><linearGradient
       inkscape:collect="always"
       xlink:href="#linearGradient412"
       id="linearGradient414"
       x1="9.3516378"
       y1="-238.79404"
       x2="2225.2837"
       y2="786.08954"
       gradientUnits="userSpaceOnUse"
       spreadMethod="reflect" /></defs><g
     inkscape:groupmode="layer"
     id="layer2"
     inkscape:label="LOGO"
     style="display:none"><g
       inkscape:groupmode="layer"
       id="layer3"
       inkscape:label="ARROWS"
       transform="translate(-54.671643,84.223881)"><g
         id="g317"
         transform="matrix(7.3953294,0,0,8.2739245,-848.64275,-1662.1517)"><path
           style="fill:#000000;stroke-width:0.264583"
           d="m 358.95882,233.77082 c 1.04088,-0.98062 3.74482,-3.6025 6.00877,-5.8264 2.26394,-2.2239 4.3773,-4.22629 4.69635,-4.44976 l 0.58009,-0.40632 v 4.84615 c 0,4.53245 0.0337,4.86719 0.52042,5.17116 0.35439,0.22131 0.71314,0.24609 1.12448,0.0777 1.02556,-0.41992 12.12969,-11.45737 12.12214,-12.04935 -0.004,-0.33429 -2.20041,-2.69713 -5.96348,-6.41614 -7.9073,-7.81472 -7.80356,-7.81181 -7.80356,-0.21884 v 5.03314 l -6.42854,-6.40897 c -6.55722,-6.53727 -7.16563,-6.99647 -8.07062,-6.09148 -0.23875,0.23875 -0.3175,3.70681 -0.3175,13.98191 0,12.90184 0.027,13.68884 0.48385,14.10229 0.26612,0.24084 0.63489,0.43788 0.81948,0.43788 0.18459,0 1.18725,-0.80232 2.22812,-1.78294 z"
           id="path313" /></g><g
         id="g319"
         transform="matrix(7.3953294,0,0,8.2739245,-2220.1884,-2068.8576)"><path
           style="fill:#000000;stroke-width:0.264583"
           d="m 336.84173,282.92597 c -1.04088,-0.98062 -3.74482,-3.6025 -6.00877,-5.8264 -2.26394,-2.2239 -4.3773,-4.22629 -4.69635,-4.44976 l -0.58009,-0.40632 v 4.84615 c 0,4.53245 -0.0337,4.86719 -0.52042,5.17116 -0.35439,0.22131 -0.71314,0.24609 -1.12448,0.0777 -1.02556,-0.41992 -12.12969,-11.45737 -12.12214,-12.04935 0.004,-0.33429 2.20041,-2.69713 5.96348,-6.41614 7.9073,-7.81472 7.80356,-7.81181 7.80356,-0.21884 v 5.03314 l 6.42854,-6.40897 c 6.55722,-6.53727 7.16563,-6.99647 8.07062,-6.09148 0.23875,0.23875 0.3175,3.70681 0.3175,13.98191 0,12.90184 -0.027,13.68884 -0.48385,14.10229 -0.26612,0.24084 -0.63489,0.43788 -0.81948,0.43788 -0.18459,0 -1.18725,-0.80232 -2.22812,-1.78294 z"
           id="path317" /></g></g><g
       inkscape:label="Layer 1"
       inkscape:groupmode="layer"
       id="layer1"
       style="display:inline"
       transform="matrix(2.2201376,0,0,2.4759821,-407.54869,-304.55936)"><text
         xml:space="preserve"
         style="font-size:114.85px;display:inline;fill:#000000;stroke-width:1.19635"
         x="351.12708"
         y="235.43596"
         id="text128"
         transform="scale(0.86253831,1.1593688)"><tspan
           sodipodi:role="line"
           id="tspan126"
           style="font-style:normal;font-variant:normal;font-weight:bold;font-stretch:normal;font-size:114.85px;font-family:Bahnschrift;-inkscape-font-specification:'Bahnschrift Bold';stroke-width:1.19635"
           x="351.12708"
           y="235.43596">DISPLAYGRAM</tspan></text></g></g><g
     inkscape:groupmode="layer"
     id="g346"
     inkscape:label="LOGO copy"
     style="display:inline;fill:url(#linearGradient414);fill-opacity:1"><g
       inkscape:groupmode="layer"
       id="g338"
       inkscape:label="ARROWS"
       transform="translate(-54.671643,84.223881)"
       style="fill:url(#linearGradient414);fill-opacity:1"><g
         id="g332"
         transform="matrix(7.3953294,0,0,8.2739245,-848.64275,-1662.1517)"
         style="fill:url(#linearGradient414);fill-opacity:1"><path
           style="fill:url(#linearGradient414);fill-opacity:1;stroke-width:0.264583"
           d="m 358.95882,233.77082 c 1.04088,-0.98062 3.74482,-3.6025 6.00877,-5.8264 2.26394,-2.2239 4.3773,-4.22629 4.69635,-4.44976 l 0.58009,-0.40632 v 4.84615 c 0,4.53245 0.0337,4.86719 0.52042,5.17116 0.35439,0.22131 0.71314,0.24609 1.12448,0.0777 1.02556,-0.41992 12.12969,-11.45737 12.12214,-12.04935 -0.004,-0.33429 -2.20041,-2.69713 -5.96348,-6.41614 -7.9073,-7.81472 -7.80356,-7.81181 -7.80356,-0.21884 v 5.03314 l -6.42854,-6.40897 c -6.55722,-6.53727 -7.16563,-6.99647 -8.07062,-6.09148 -0.23875,0.23875 -0.3175,3.70681 -0.3175,13.98191 0,12.90184 0.027,13.68884 0.48385,14.10229 0.26612,0.24084 0.63489,0.43788 0.81948,0.43788 0.18459,0 1.18725,-0.80232 2.22812,-1.78294 z"
           id="path330" /></g><g
         id="g336"
         transform="matrix(7.3953294,0,0,8.2739245,-2220.1884,-2068.8576)"
         style="fill:url(#linearGradient414);fill-opacity:1"><path
           style="fill:url(#linearGradient414);fill-opacity:1;stroke-width:0.264583"
           d="m 336.84173,282.92597 c -1.04088,-0.98062 -3.74482,-3.6025 -6.00877,-5.8264 -2.26394,-2.2239 -4.3773,-4.22629 -4.69635,-4.44976 l -0.58009,-0.40632 v 4.84615 c 0,4.53245 -0.0337,4.86719 -0.52042,5.17116 -0.35439,0.22131 -0.71314,0.24609 -1.12448,0.0777 -1.02556,-0.41992 -12.12969,-11.45737 -12.12214,-12.04935 0.004,-0.33429 2.20041,-2.69713 5.96348,-6.41614 7.9073,-7.81472 7.80356,-7.81181 7.80356,-0.21884 v 5.03314 l 6.42854,-6.40897 c 6.55722,-6.53727 7.16563,-6.99647 8.07062,-6.09148 0.23875,0.23875 0.3175,3.70681 0.3175,13.98191 0,12.90184 -0.027,13.68884 -0.48385,14.10229 -0.26612,0.24084 -0.63489,0.43788 -0.81948,0.43788 -0.18459,0 -1.18725,-0.80232 -2.22812,-1.78294 z"
           id="path334" /></g></g><g
       inkscape:label="Layer 1"
       inkscape:groupmode="layer"
       id="g344"
       style="display:inline;fill:url(#linearGradient414);fill-opacity:1"
       transform="matrix(2.2201376,0,0,2.4759821,-407.54869,-304.55936)"><text
         xml:space="preserve"
         style="font-size:114.85px;display:inline;fill:url(#linearGradient414);fill-opacity:1;stroke-width:1.19635"
         x="351.12708"
         y="235.43596"
         id="text342"
         transform="scale(0.86253831,1.1593688)"><tspan
           sodipodi:role="line"
           id="tspan340"
           style="font-style:normal;font-variant:normal;font-weight:bold;font-stretch:normal;font-size:114.85px;font-family:Bahnschrift;-inkscape-font-specification:'Bahnschrift Bold';fill:url(#linearGradient414);fill-opacity:1;stroke-width:1.19635"
           x="351.12708"
           y="235.43596">DISPLAYGRAM</tspan></text></g></g></svg>
