<?xml version="1.0" encoding="UTF-8" standalone="no"?>
<!-- Created with Inkscape (http://www.inkscape.org/) -->

<svg
   width="2000mm"
   height="500mm"
   viewBox="0 0 2000 500"
   version="1.1"
   id="svg5"
   xml:space="preserve"
   xmlns:xlink="http://www.w3.org/1999/xlink"
   xmlns="http://www.w3.org/2000/svg"
   xmlns:svg="http://www.w3.org/2000/svg"><defs
     id="defs2"><linearGradient
       id="linearGradient412"><stop
         style="stop-color:#7ee6ff;stop-opacity:1;"
         offset="0"
         id="stop408" /><stop
         style="stop-color:#4da6ff;stop-opacity:1;"
         offset="0.5"
         id="stop1207" /></linearGradient><rect
       x="1208.3823"
       y="695.01725"
       width="730.5579"
       height="286.29972"
       id="rect186" /><rect
       x="1329.8128"
       y="533.60344"
       width="183.13309"
       height="64.170626"
       id="rect427" /><linearGradient
       xlink:href="#linearGradient412"
       id="linearGradient1"
       gradientUnits="userSpaceOnUse"
       x1="9.3516378"
       y1="-238.79404"
       x2="2225.2837"
       y2="786.08954"
       spreadMethod="reflect"
       gradientTransform="matrix(3.331023,0,0,3.3416738,-223.30404,-514.28824)" /></defs><path
     id="path330"
     style="display:inline;fill:url(#linearGradient1);fill-opacity:1;stroke-width:0.88274"
     d="M 289.25344 176.37702 C 286.38783 176.55677 281.15249 181.51583 264.7708 197.8999 L 243.35713 219.31677 L 243.35713 202.4976 C 243.35713 177.12437 243.70281 177.11468 217.36341 203.22892 C 204.82854 215.65664 197.51207 223.55248 197.49877 224.66957 C 197.47367 226.64778 234.46174 263.53125 237.87791 264.93449 C 239.24809 265.49719 240.44304 265.4144 241.62352 264.67485 C 243.2448 263.65908 243.35713 262.5404 243.35713 247.39443 L 243.35713 231.20035 L 245.28953 232.55801 C 246.35229 233.30477 253.39178 239.99606 260.93302 247.42761 C 268.47429 254.85916 277.48128 263.62071 280.94848 266.89762 L 280.94848 266.89783 C 284.41564 270.17474 287.75547 272.85569 288.37034 272.85569 C 288.98521 272.85569 290.21371 272.19723 291.10017 271.39242 C 292.62198 270.01081 292.71182 267.38092 292.71182 224.26718 C 292.71182 189.93115 292.44943 178.34216 291.65415 177.54434 C 290.90051 176.78829 290.20864 176.3171 289.25344 176.37702 z M 964.09092 176.37702 C 963.13571 176.31712 962.44384 176.78808 961.69021 177.54413 C 960.89493 178.34196 960.63277 189.93115 960.63277 224.26718 C 960.63277 267.38092 960.72257 270.0108 962.24441 271.39242 C 963.13086 272.19723 964.35914 272.85569 964.97402 272.85569 C 965.58889 272.85569 968.92894 270.17454 972.39611 266.89762 C 975.8633 263.62071 984.87007 254.85915 992.41134 247.42761 C 999.95257 239.99606 1006.9924 233.30477 1008.0551 232.55801 L 1009.9872 231.20014 L 1009.9872 247.39443 C 1009.9872 262.5404 1010.0995 263.65908 1011.7208 264.67485 C 1012.9013 265.4144 1014.0963 265.4972 1015.4664 264.93449 C 1018.8826 263.53126 1055.8709 226.64758 1055.8458 224.66937 C 1055.8328 223.55229 1048.5161 215.65643 1035.9812 203.22871 C 1009.6418 177.11446 1009.9872 177.12437 1009.9872 202.4976 L 1009.9872 219.31656 L 988.57379 197.8999 C 972.1921 181.51584 966.95652 176.55677 964.09092 176.37702 z M 426.83388 177.44812 C 421.3519 177.44812 416.67609 178.5967 412.80646 180.89394 C 408.93683 183.14784 405.98629 186.44218 403.95474 190.7766 C 401.92318 195.11102 400.90718 200.33382 400.90718 206.44536 L 400.90718 206.51048 C 400.90718 213.40221 401.98762 218.73346 404.14816 222.50441 C 406.30871 226.23202 408.93681 228.8543 412.03252 230.37135 C 415.12822 231.84505 419.03008 233.0805 423.73814 234.07742 L 424.80233 234.27236 C 424.89913 234.31566 424.9797 234.33748 425.04417 234.33748 C 425.14087 234.33748 425.23768 234.35909 425.33442 234.40239 C 428.01092 234.96586 430.20367 235.59437 431.91275 236.28788 C 433.62184 236.98138 435.0083 238.06506 436.07244 239.53876 C 437.1366 241.01247 437.66873 243.00624 437.66873 245.52021 L 437.66873 245.58532 C 437.66873 249.18289 436.47558 251.97853 434.08931 253.97237 C 431.70304 255.92286 428.34948 256.89808 424.02839 256.89808 C 420.28775 256.89808 416.64387 256.09622 413.09671 254.49248 C 409.54955 252.8454 406.42141 250.52648 403.71267 247.53573 L 397.56984 262.22939 C 399.79487 264.70001 402.31004 266.8238 405.11552 268.60091 C 407.95325 270.33468 410.96822 271.65682 414.16067 272.56704 C 417.38535 273.47728 420.67471 273.93243 424.02839 273.93243 C 429.6716 273.93243 434.49246 272.80543 438.49108 270.55152 C 442.52194 268.29762 445.58541 265.02505 447.68146 260.73397 C 449.77751 256.44289 450.82562 251.28501 450.82562 245.26015 L 450.82562 245.13013 C 450.82562 238.71519 449.82579 233.66553 447.82647 229.98127 C 445.82717 226.25367 443.32816 223.56648 440.3292 221.91939 C 437.36248 220.22897 433.65393 218.7986 429.20386 217.6283 C 429.01038 217.5849 428.81706 217.5416 428.62358 217.49827 C 428.46234 217.41157 428.28497 217.34646 428.09149 217.30313 C 427.9625 217.25983 427.83339 217.23822 427.70441 217.23822 C 427.57542 217.19482 427.44655 217.15152 427.31756 217.10819 C 424.22186 216.28465 421.81939 215.50435 420.1103 214.7675 C 418.40122 214.03065 416.96626 212.88208 415.80537 211.32168 C 414.64447 209.71795 414.06407 207.55061 414.06407 204.81992 L 414.06407 204.75501 C 414.06407 201.50419 415.17661 198.99014 417.40165 197.21304 C 419.62669 195.39257 422.77077 194.48247 426.83388 194.48247 C 429.54262 194.48247 432.36428 195.17588 435.29874 196.5629 C 438.26546 197.94992 441.10304 199.90036 443.81179 202.41432 L 449.42276 187.33058 C 447.16548 185.25006 444.77917 183.47297 442.26392 181.99927 C 439.74866 180.52556 437.16906 179.39856 434.52481 178.61836 C 431.91281 177.83817 429.34914 177.44812 426.83388 177.44812 z M 713.18643 177.44812 C 708.09142 177.44812 703.60915 178.92183 699.73952 181.86924 C 695.86989 184.7733 692.87085 188.89086 690.74256 194.22221 C 688.64651 199.55355 687.59841 205.73022 687.59841 212.75198 L 687.59841 240.64389 C 687.59841 247.27555 688.66268 253.10551 690.79097 258.13344 C 692.95152 263.16137 695.98266 267.06224 699.88453 269.83627 C 703.81866 272.56697 708.34942 273.93243 713.47668 273.93243 C 718.57169 273.93243 723.05396 272.48028 726.9236 269.57622 C 730.79322 266.62881 733.77609 262.48948 735.87214 257.15813 C 738.00044 251.78344 739.06448 245.58522 739.06448 238.56346 L 739.06448 220.09881 L 714.68588 220.09881 L 714.68588 237.26319 L 725.32731 237.26319 L 725.32731 238.82351 C 725.32731 242.2477 724.84368 245.2167 723.87627 247.73066 C 722.90886 250.24463 721.52217 252.1735 719.71634 253.51717 C 717.94276 254.81749 715.86295 255.46778 713.47668 255.46778 C 711.05816 255.46778 708.92986 254.86083 707.09178 253.6472 C 705.25372 252.43356 703.83492 250.69981 702.83526 248.44591 C 701.8356 246.19201 701.33557 243.59129 701.33557 240.64389 L 701.33557 212.75198 C 701.33557 209.41448 701.81944 206.46705 702.78684 203.90973 C 703.7865 201.35243 705.17296 199.38021 706.94654 197.9932 C 708.75237 196.60617 710.83241 195.91277 713.18643 195.91277 C 714.79878 195.91277 716.34668 196.3028 717.83004 197.08301 C 719.34564 197.81986 720.65149 198.9251 721.74789 200.3988 C 722.87653 201.82916 723.68282 203.54133 724.16653 205.53517 L 738.4842 205.53517 C 737.64577 199.94377 736.03343 195.02413 733.64717 190.77639 C 731.29315 186.52865 728.34238 183.2563 724.79522 180.95905 C 721.24806 178.61847 717.37853 177.44812 713.18643 177.44812 z M 752.12454 178.35831 L 752.12454 272.95713 L 765.37802 272.95713 L 765.37802 234.9225 L 773.41786 234.9225 L 789.27293 272.95713 L 805.3319 272.95713 L 788.51948 233.98664 C 790.15003 233.40211 791.67487 232.54364 793.09419 231.41156 C 796.06091 229.07097 798.35043 225.77684 799.96277 221.5291 C 801.57512 217.23803 802.38141 212.27526 802.38141 206.64051 C 802.38141 201.00575 801.57512 196.06434 799.96277 191.81661 C 798.35043 187.52553 796.07707 184.20983 793.14261 181.86924 C 790.20814 179.52865 786.80608 178.35831 782.93645 178.35831 L 765.37802 178.35831 L 752.12454 178.35831 z M 310.59983 178.42322 L 310.59983 272.95713 L 323.85332 272.95713 L 333.81764 272.95713 C 339.84781 272.95713 344.94282 271.54832 349.10267 268.73094 C 353.26253 265.91357 356.37427 261.96936 358.43807 256.89808 C 360.53412 251.8268 361.58222 245.88861 361.58222 239.08356 L 361.58222 212.29678 C 361.58222 205.14498 360.50202 199.03344 358.34148 193.96216 C 356.18093 188.89088 353.02068 185.03336 348.86083 182.38935 C 344.73323 179.74536 339.735 178.42322 333.86605 178.42322 L 323.85332 178.42322 L 310.59983 178.42322 z M 373.67469 178.42322 L 373.67469 272.95713 L 387.41186 272.95713 L 387.41186 178.42322 L 373.67469 178.42322 z M 461.95072 178.42322 L 461.95072 272.95713 L 475.20421 272.95713 L 475.20421 236.28788 L 490.15057 236.28788 C 494.53615 236.28788 498.38974 235.09597 501.71118 232.71204 C 505.06486 230.3281 507.66064 226.96886 509.49871 222.63444 C 511.33679 218.25668 512.25578 213.18545 512.25578 207.42067 C 512.25578 201.65587 511.33679 196.58445 509.49871 192.20669 C 507.66064 187.82892 505.06486 184.44811 501.71118 182.06418 C 498.38974 179.6369 494.53615 178.42322 490.15057 178.42322 L 475.20421 178.42322 L 461.95072 178.42322 z M 522.65559 178.42322 L 522.65559 272.95713 L 535.90908 272.95713 L 569.76831 272.95713 L 569.76831 255.79275 L 535.90908 255.79275 L 535.90908 178.42322 L 522.65559 178.42322 z M 600.53181 178.42322 L 573.63799 272.95713 L 587.90725 272.95713 L 591.85699 257.80827 L 617.62308 257.80827 L 621.57282 272.95713 L 635.84208 272.95713 L 608.94826 178.42322 L 600.53181 178.42322 z M 630.03769 178.42322 L 650.74026 236.48282 L 650.74026 272.95713 L 663.99375 272.95713 L 663.99375 236.48282 L 684.69633 178.42322 L 670.81392 178.42322 L 657.36701 219.1235 L 643.9201 178.42322 L 630.03769 178.42322 z M 834.40252 178.42322 L 807.50869 272.95713 L 821.77795 272.95713 L 825.7277 257.80827 L 851.49402 257.80827 L 855.44376 272.95713 L 869.71279 272.95713 L 842.81897 178.42322 L 834.40252 178.42322 z M 878.41973 178.42322 L 878.41973 272.95713 L 890.46378 272.95713 L 890.46378 207.08005 L 903.42701 262.42453 L 915.13263 262.42453 L 928.09586 205.82737 L 928.09586 272.95713 L 940.14014 272.95713 L 940.14014 178.42322 L 922.67855 178.42322 L 909.28005 242.1393 L 895.88132 178.42322 L 878.41973 178.42322 z M 765.37802 195.52269 L 781.87226 195.52269 C 783.25887 195.52269 784.46818 195.97764 785.50009 196.88787 C 786.53199 197.7981 787.32211 199.09845 787.87031 200.78888 C 788.45075 202.4793 788.74084 204.42995 788.74084 206.64051 C 788.70854 208.85106 788.40235 210.80149 787.82189 212.49192 C 787.2737 214.18234 786.48357 215.48271 785.45167 216.39294 C 784.41977 217.30316 783.22663 217.75812 781.87226 217.75812 L 765.37802 217.75812 L 765.37802 195.52269 z M 323.85332 195.5876 L 334.15608 195.5876 C 338.50941 195.5876 341.87936 196.99641 344.26564 199.81378 C 346.65191 202.63116 347.84506 206.61871 347.84506 211.77667 L 347.84506 239.60367 C 347.84506 244.76164 346.65191 248.74939 344.26564 251.56677 C 341.87936 254.38415 338.50941 255.79275 334.15608 255.79275 L 323.85332 255.79275 L 323.85332 195.5876 z M 475.20421 195.5876 L 490.48924 195.5876 C 492.10159 195.5876 493.50422 196.08609 494.69735 197.08301 C 495.92273 198.03658 496.85789 199.42362 497.50284 201.24408 C 498.18002 203.02119 498.51861 205.08007 498.51861 207.42067 C 498.51861 209.71791 498.18002 211.75502 497.50284 213.53214 C 496.82565 215.30925 495.87456 216.69629 494.64917 217.69321 C 493.45604 218.64678 492.06934 219.1235 490.48924 219.1235 L 475.20421 219.1235 L 475.20421 195.5876 z M 604.73992 208.39576 L 613.14799 240.64389 L 596.33208 240.64389 L 604.73992 208.39576 z M 838.61086 208.39576 L 847.01893 240.64389 L 830.20279 240.64389 L 838.61086 208.39576 z "
     transform="matrix(2.2201376,0,0,2.4759821,-407.54869,-304.55936)" /></svg>
