<?xml version="1.0" encoding="UTF-8" standalone="no"?>
<!-- Created with Inkscape (http://www.inkscape.org/) -->

<svg
   version="1.1"
   id="svg1833"
   width="32"
   height="32"
   viewBox="0 0 32 32"
   sodipodi:docname="favicon-32.svg"
   inkscape:export-filename="displaygram-logo.png"
   inkscape:export-xdpi="3.0351923"
   inkscape:export-ydpi="3.0351923"
   inkscape:version="1.2.2 (732a01da63, 2022-12-09)"
   xmlns:inkscape="http://www.inkscape.org/namespaces/inkscape"
   xmlns:sodipodi="http://sodipodi.sourceforge.net/DTD/sodipodi-0.dtd"
   xmlns:xlink="http://www.w3.org/1999/xlink"
   xmlns="http://www.w3.org/2000/svg"
   xmlns:svg="http://www.w3.org/2000/svg">
  <defs
     id="defs1837">
    <linearGradient
       inkscape:collect="always"
       id="linearGradient1851">
      <stop
         style="stop-color:#19ddfd;stop-opacity:1;"
         offset="0"
         id="stop1847" />
      <stop
         style="stop-color:#9d98e3;stop-opacity:1;"
         offset="1"
         id="stop1849" />
    </linearGradient>
    <linearGradient
       inkscape:collect="always"
       xlink:href="#linearGradient1851"
       id="linearGradient1853"
       x1="224.79601"
       y1="588.41791"
       x2="226.06966"
       y2="62.407959"
       gradientUnits="userSpaceOnUse"
       gradientTransform="matrix(0.06238657,0,0,0.07444121,5.2074346,134.91888)" />
  </defs>
  <sodipodi:namedview
     id="namedview1835"
     pagecolor="#ffffff"
     bordercolor="#000000"
     borderopacity="0.25"
     inkscape:showpageshadow="2"
     inkscape:pageopacity="0.0"
     inkscape:pagecheckerboard="0"
     inkscape:deskcolor="#d1d1d1"
     showgrid="false"
     inkscape:zoom="12.109375"
     inkscape:cx="8.2993548"
     inkscape:cy="8.2993548"
     inkscape:window-width="1920"
     inkscape:window-height="991"
     inkscape:window-x="-9"
     inkscape:window-y="-9"
     inkscape:window-maximized="1"
     inkscape:current-layer="g1839" />
  <g
     inkscape:groupmode="layer"
     inkscape:label="Image"
     id="g1839"
     transform="translate(-5.24071,-138.35579)">
    <path
       style="fill:url(#linearGradient1853);fill-opacity:1;stroke-width:0.0681477"
       d="m 14.550795,161.07066 c -0.01025,-1.09757 -0.01818,-5.00998 -0.0176,-8.69428 l 0.0012,-6.6987 3.015398,-0.0257 c 3.888203,-0.0344 4.824431,0.0559 6.134076,0.59084 1.902481,0.7767 3.441856,2.68642 4.040421,5.01236 0.458213,1.78056 0.469533,4.45556 0.02563,6.05943 -0.496714,1.79472 -1.457999,3.37081 -2.640128,4.3287 -0.652893,0.52902 -1.408257,0.89236 -2.501823,1.20327 -0.567881,0.1614 -0.709768,0.16783 -4.312798,0.19376 l -3.725594,0.0257 -0.01862,-1.99557 z m 7.196719,-2.06396 c 0.648316,-0.2536 1.024464,-0.52316 1.474681,-1.05684 0.817805,-0.96947 1.205456,-2.66055 1.013335,-4.42064 -0.173728,-1.59154 -0.67247,-2.61153 -1.642899,-3.35995 -0.697246,-0.53773 -0.992375,-0.60775 -2.708753,-0.64264 l -1.512875,-0.0307 v 4.84543 4.84544 h 1.45812 c 1.373773,0 1.48475,-0.008 1.918391,-0.1801 z m -10.385471,-0.99155 c -0.245429,-0.27584 -0.882999,-1.01358 -1.4168151,-1.63927 -0.5338194,-0.62573 -1.032135,-1.18907 -1.1073625,-1.25196 l -0.1367881,-0.11435 v 1.36346 c 0,1.27522 -0.00798,1.36939 -0.1227017,1.45492 -0.083569,0.0626 -0.1681544,0.0693 -0.2651463,0.023 -0.2418195,-0.118 -2.8600807,-3.22355 -2.8582995,-3.39011 8.148e-4,-0.0941 0.5188376,-0.75888 1.4061384,-1.80523 1.8644764,-2.19868 1.8400128,-2.19783 1.8400128,-0.0615 v 1.41607 l 1.515801,-1.80318 c 1.546138,-1.83926 1.689596,-1.96846 1.902986,-1.71383 0.05628,0.0673 0.07487,1.04289 0.07487,3.93384 0,3.62996 -0.0063,3.85138 -0.114087,3.96772 -0.06276,0.0679 -0.149701,0.12342 -0.19323,0.12342 -0.04352,0 -0.279942,-0.22567 -0.525373,-0.50164 z m 18.902707,0.36474 c -0.09447,-0.12462 -0.102372,-0.48406 -0.08768,-3.99309 0.01467,-3.53335 0.02501,-3.86291 0.122059,-3.93595 0.07059,-0.0531 0.157194,-0.0559 0.259774,-0.008 0.08464,0.0394 0.823062,0.8395 1.64094,1.77802 l 1.487052,1.70641 0.0312,-1.34162 c 0.04993,-2.14781 0.05774,-2.14754 1.916848,0.0708 0.857209,1.02282 1.390368,1.71447 1.391546,1.80516 0.0012,0.0951 -0.488356,0.72087 -1.381492,1.76615 -1.120755,1.31172 -1.415774,1.61905 -1.553929,1.61905 -0.09379,0 -0.200002,-0.0424 -0.236016,-0.0941 -0.03844,-0.0555 -0.07381,-0.63889 -0.08564,-1.41421 -0.01104,-0.72602 -0.03166,-1.32013 -0.04571,-1.32024 -0.01406,-9e-5 -0.182967,0.17567 -0.375349,0.39063 -2.412224,2.69509 -2.796816,3.10795 -2.89538,3.10795 -0.04645,0 -0.131158,-0.0615 -0.188272,-0.1369 z"
       id="path1845"
       inkscape:export-filename="path1845.png"
       inkscape:export-xdpi="1"
       inkscape:export-ydpi="1" />
  </g>
</svg>
