<?xml version="1.0" encoding="UTF-8" standalone="no"?>
<!-- Created with Inkscape (http://www.inkscape.org/) -->

<svg
   version="1.1"
   id="svg1833"
   width="16"
   height="16"
   viewBox="0 0 16 16"
   sodipodi:docname="favicon-16.svg"
   inkscape:export-filename="displaygram-logo.png"
   inkscape:export-xdpi="3.0351923"
   inkscape:export-ydpi="3.0351923"
   inkscape:version="1.2.2 (732a01da63, 2022-12-09)"
   xmlns:inkscape="http://www.inkscape.org/namespaces/inkscape"
   xmlns:sodipodi="http://sodipodi.sourceforge.net/DTD/sodipodi-0.dtd"
   xmlns:xlink="http://www.w3.org/1999/xlink"
   xmlns="http://www.w3.org/2000/svg"
   xmlns:svg="http://www.w3.org/2000/svg">
  <defs
     id="defs1837">
    <linearGradient
       inkscape:collect="always"
       id="linearGradient1851">
      <stop
         style="stop-color:#19ddfd;stop-opacity:1;"
         offset="0"
         id="stop1847" />
      <stop
         style="stop-color:#9d98e3;stop-opacity:1;"
         offset="1"
         id="stop1849" />
    </linearGradient>
    <linearGradient
       inkscape:collect="always"
       xlink:href="#linearGradient1851"
       id="linearGradient1853"
       x1="224.79601"
       y1="588.41791"
       x2="226.06966"
       y2="62.407959"
       gradientUnits="userSpaceOnUse"
       gradientTransform="matrix(0.03105556,0,0,0.03703563,5.3307417,136.70213)" />
  </defs>
  <sodipodi:namedview
     id="namedview1835"
     pagecolor="#ffffff"
     bordercolor="#000000"
     borderopacity="0.25"
     inkscape:showpageshadow="2"
     inkscape:pageopacity="0.0"
     inkscape:pagecheckerboard="0"
     inkscape:deskcolor="#d1d1d1"
     showgrid="false"
     inkscape:zoom="48.4375"
     inkscape:cx="8.1858065"
     inkscape:cy="8.1858065"
     inkscape:window-width="1920"
     inkscape:window-height="991"
     inkscape:window-x="-9"
     inkscape:window-y="-9"
     inkscape:window-maximized="1"
     inkscape:current-layer="g1839" />
  <g
     inkscape:groupmode="layer"
     inkscape:label="Image"
     id="g1839"
     transform="translate(-5.24071,-138.35579)">
    <path
       style="fill:url(#linearGradient1853);fill-opacity:1;stroke-width:0.033914"
       d="m 9.9817951,149.71304 c -0.00509,-0.54606 -0.00905,-2.49254 -0.00876,-4.32554 l 6.136e-4,-3.3327 1.5010423,-0.0128 c 1.935518,-0.0171 2.401565,0.0278 3.053497,0.29395 0.94704,0.38642 1.713329,1.33653 2.01129,2.49373 0.228095,0.88585 0.23373,2.2167 0.01276,3.01465 -0.247261,0.8929 -0.725781,1.67703 -1.314236,2.15359 -0.325005,0.2632 -0.70102,0.44397 -1.245388,0.59865 -0.282687,0.0803 -0.353317,0.0835 -2.146878,0.0964 l -1.8545729,0.0128 -0.00927,-0.99283 z m 3.5824719,-1.02685 c 0.322727,-0.12617 0.50997,-0.26028 0.734085,-0.5258 0.407097,-0.48232 0.600067,-1.32366 0.50443,-2.19933 -0.08648,-0.79181 -0.33475,-1.29928 -0.817822,-1.67163 -0.347084,-0.26753 -0.493997,-0.30236 -1.348397,-0.31972 l -0.753097,-0.0153 v 2.41068 2.41068 h 0.725841 c 0.683854,0 0.739097,-0.004 0.95496,-0.0896 z M 8.394459,148.19288 C 8.2722864,148.05564 7.9549091,147.6886 7.6891793,147.37732 7.423448,147.06601 7.1753903,146.78573 7.1379426,146.75445 l -0.068092,-0.0569 v 0.67835 c 0,0.63444 -0.00397,0.68129 -0.06108,0.72384 -0.0416,0.0311 -0.083706,0.0345 -0.1319878,0.0114 -0.1203759,-0.0587 -1.4237264,-1.60376 -1.4228397,-1.68663 4.056e-4,-0.0468 0.2582734,-0.37755 0.699965,-0.89813 0.9281221,-1.09387 0.9159443,-1.09345 0.9159443,-0.0306 v 0.70452 l 0.7545542,-0.89711 c 0.7696557,-0.91506 0.8410676,-0.97934 0.9472923,-0.85266 0.028018,0.0335 0.037267,0.51886 0.037267,1.95715 0,1.80596 -0.00314,1.91612 -0.056792,1.974 -0.031236,0.0338 -0.07452,0.0614 -0.096188,0.0614 -0.021664,0 -0.1393537,-0.11227 -0.2615271,-0.24957 z m 9.409623,0.18146 c -0.04703,-0.062 -0.05096,-0.24083 -0.04364,-1.98662 0.0073,-1.7579 0.01245,-1.92186 0.06076,-1.95819 0.03514,-0.0264 0.07825,-0.0278 0.129313,-0.004 0.04213,0.0196 0.409714,0.41766 0.816848,0.88459 l 0.740243,0.84897 0.01553,-0.66748 c 0.02486,-1.06857 0.02874,-1.06843 0.954192,0.0352 0.426712,0.50887 0.692115,0.85298 0.692701,0.8981 6.14e-4,0.0473 -0.2431,0.35864 -0.687696,0.87868 -0.557904,0.6526 -0.704762,0.80551 -0.773534,0.80551 -0.04669,0 -0.09956,-0.0211 -0.117487,-0.0468 -0.01914,-0.0276 -0.03674,-0.31786 -0.04263,-0.70359 -0.0055,-0.36121 -0.01576,-0.65679 -0.02275,-0.65684 -0.007,-5e-5 -0.09108,0.0874 -0.186846,0.19434 -1.200787,1.34085 -1.392234,1.54625 -1.441298,1.54625 -0.02312,0 -0.06529,-0.0306 -0.09372,-0.0681 z"
       id="path1845"
       inkscape:export-filename="path1845.png"
       inkscape:export-xdpi="1"
       inkscape:export-ydpi="1" />
  </g>
</svg>
