<?xml version="1.0" encoding="UTF-8" standalone="no"?>
<!-- Created with Inkscape (http://www.inkscape.org/) -->

<svg
   version="1.1"
   id="svg1833"
   width="512"
   height="512"
   viewBox="0 0 512 512"
   sodipodi:docname="displaygram-logo.svg"
   inkscape:version="1.2.2 (732a01da63, 2022-12-09)"
   xmlns:inkscape="http://www.inkscape.org/namespaces/inkscape"
   xmlns:sodipodi="http://sodipodi.sourceforge.net/DTD/sodipodi-0.dtd"
   xmlns:xlink="http://www.w3.org/1999/xlink"
   xmlns="http://www.w3.org/2000/svg"
   xmlns:svg="http://www.w3.org/2000/svg">
  <defs
     id="defs1837">
    <linearGradient
       inkscape:collect="always"
       id="linearGradient1851">
      <stop
         style="stop-color:#19ddfd;stop-opacity:1;"
         offset="0"
         id="stop1847" />
      <stop
         style="stop-color:#9d98e3;stop-opacity:1;"
         offset="1"
         id="stop1849" />
    </linearGradient>
    <linearGradient
       inkscape:collect="always"
       xlink:href="#linearGradient1851"
       id="linearGradient1853"
       x1="224.79601"
       y1="588.41791"
       x2="226.06966"
       y2="62.407959"
       gradientUnits="userSpaceOnUse" />
  </defs>
  <sodipodi:namedview
     id="namedview1835"
     pagecolor="#ffffff"
     bordercolor="#000000"
     borderopacity="0.25"
     inkscape:showpageshadow="2"
     inkscape:pageopacity="0.0"
     inkscape:pagecheckerboard="0"
     inkscape:deskcolor="#d1d1d1"
     showgrid="false"
     inkscape:zoom="1.5703125"
     inkscape:cx="140.0995"
     inkscape:cy="329.55224"
     inkscape:window-width="1920"
     inkscape:window-height="991"
     inkscape:window-x="-9"
     inkscape:window-y="-9"
     inkscape:window-maximized="1"
     inkscape:current-layer="g1839" />
  <g
     inkscape:groupmode="layer"
     inkscape:label="Image"
     id="g1839">
    <path
       style="fill:#000000"
       d="m 149.76555,351.30723 c -0.16425,-14.74398 -0.29119,-67.30112 -0.28209,-116.79365 l 0.0165,-89.98642 48.33413,-0.35484 c 62.32433,-0.45755 77.33123,0.75381 98.32369,7.93671 30.49497,10.43435 55.16972,36.08795 64.76418,67.33339 7.34476,23.91903 7.52621,59.85359 0.41104,81.3988 -7.96188,24.10908 -23.3704,45.2815 -42.31882,58.14912 -10.46528,7.10684 -22.57309,11.98734 -40.10194,16.16459 -9.10263,2.16922 -11.37689,2.2548 -69.13019,2.60127 l -59.71791,0.35826 -0.29863,-26.80723 z m 115.35681,-27.72577 c 10.39192,-3.40667 16.42121,-7.02799 23.63777,-14.19735 C 301.86888,296.3611 308.08251,273.64397 305.00297,250 302.21833,228.62018 294.22394,214.9181 278.66886,204.86437 267.49259,197.6408 262.76198,196.70022 235.25,196.23147 L 211,195.8183 V 260.90915 326 h 23.37236 c 22.02027,0 23.79915,-0.13991 30.75,-2.41854 z M 98.652769,310.26131 c -3.934023,-3.70628 -14.153652,-13.61575 -22.710288,-22.02103 -8.556635,-8.40529 -16.544135,-15.97339 -17.75,-16.81801 L 56,269.88659 v 18.31616 c 0,17.1305 -0.127325,18.39567 -1.966931,19.54453 -1.339409,0.83647 -2.695312,0.93013 -4.25,0.29356 C 45.906937,306.45376 3.9385515,264.7374 3.9670951,262.5 3.9832137,261.23653 12.283599,252.3061 26.50624,238.25 56.392115,208.71408 56,208.72508 56,237.4229 v 19.0229 L 80.296858,232.2229 C 105.08006,207.51514 107.37955,205.77955 110.8,209.2 c 0.90235,0.90235 1.2,14.01 1.2,52.84501 0,48.76286 -0.10206,51.73737 -1.82874,53.3 -1.00581,0.91025 -2.39956,1.65499 -3.09723,1.65499 -0.69767,0 -4.48724,-3.03241 -8.421261,-6.73869 z m 302.993131,4.89991 c -1.51424,-1.67322 -1.64074,-6.5029 -1.40498,-53.64118 0.23739,-47.46503 0.40119,-51.89203 1.95631,-52.87282 1.13141,-0.71356 2.51957,-0.74984 4.16391,-0.10882 1.35667,0.52888 13.19292,11.27702 26.30277,23.88476 L 456.5,255.34632 457,237.32345 c 0.80044,-28.8525 0.92536,-28.84864 30.72527,0.95128 13.74031,13.7403 22.28643,23.03153 22.30526,24.25 0.0197,1.27525 -7.82793,9.68326 -22.14406,23.72527 -17.96465,17.62068 -22.69355,21.75 -24.90808,21.75 -1.50343,0 -3.20582,-0.56911 -3.78309,-1.26468 -0.61647,-0.7428 -1.18282,-8.58225 -1.37245,-18.99748 -0.17757,-9.75304 -0.50716,-17.73393 -0.73244,-17.73532 -0.22527,-10e-4 -2.9327,2.35998 -6.01651,5.24748 -38.66571,36.20435 -44.83038,41.75 -46.41022,41.75 -0.74454,0 -2.10254,-0.82745 -3.01778,-1.83878 z"
       id="path1843" />
    <path
       style="fill:url(#linearGradient1853);fill-opacity:1"
       d="m 149.76555,351.30723 c -0.16425,-14.74398 -0.29119,-67.30112 -0.28209,-116.79365 l 0.0165,-89.98642 48.33413,-0.35484 c 62.32433,-0.45755 77.33123,0.75381 98.32369,7.93671 30.49497,10.43435 55.16972,36.08795 64.76418,67.33339 7.34476,23.91903 7.52621,59.85359 0.41104,81.3988 -7.96188,24.10908 -23.3704,45.2815 -42.31882,58.14912 -10.46528,7.10684 -22.57309,11.98734 -40.10194,16.16459 -9.10263,2.16922 -11.37689,2.2548 -69.13019,2.60127 l -59.71791,0.35826 -0.29863,-26.80723 z m 115.35681,-27.72577 c 10.39192,-3.40667 16.42121,-7.02799 23.63777,-14.19735 C 301.86888,296.3611 308.08251,273.64397 305.00297,250 302.21833,228.62018 294.22394,214.9181 278.66886,204.86437 267.49259,197.6408 262.76198,196.70022 235.25,196.23147 L 211,195.8183 V 260.90915 326 h 23.37236 c 22.02027,0 23.79915,-0.13991 30.75,-2.41854 z M 98.652769,310.26131 c -3.934023,-3.70628 -14.153652,-13.61575 -22.710288,-22.02103 -8.556635,-8.40529 -16.544135,-15.97339 -17.75,-16.81801 L 56,269.88659 v 18.31616 c 0,17.1305 -0.127325,18.39567 -1.966931,19.54453 -1.339409,0.83647 -2.695312,0.93013 -4.25,0.29356 C 45.906937,306.45376 3.9385515,264.7374 3.9670951,262.5 3.9832137,261.23653 12.283599,252.3061 26.50624,238.25 56.392115,208.71408 56,208.72508 56,237.4229 v 19.0229 L 80.296858,232.2229 C 105.08006,207.51514 107.37955,205.77955 110.8,209.2 c 0.90235,0.90235 1.2,14.01 1.2,52.84501 0,48.76286 -0.10206,51.73737 -1.82874,53.3 -1.00581,0.91025 -2.39956,1.65499 -3.09723,1.65499 -0.69767,0 -4.48724,-3.03241 -8.421261,-6.73869 z m 302.993131,4.89991 c -1.51424,-1.67322 -1.64074,-6.5029 -1.40498,-53.64118 0.23739,-47.46503 0.40119,-51.89203 1.95631,-52.87282 1.13141,-0.71356 2.51957,-0.74984 4.16391,-0.10882 1.35667,0.52888 13.19292,11.27702 26.30277,23.88476 L 456.5,255.34632 457,237.32345 c 0.80044,-28.8525 0.92536,-28.84864 30.72527,0.95128 13.74031,13.7403 22.28643,23.03153 22.30526,24.25 0.0197,1.27525 -7.82793,9.68326 -22.14406,23.72527 -17.96465,17.62068 -22.69355,21.75 -24.90808,21.75 -1.50343,0 -3.20582,-0.56911 -3.78309,-1.26468 -0.61647,-0.7428 -1.18282,-8.58225 -1.37245,-18.99748 -0.17757,-9.75304 -0.50716,-17.73393 -0.73244,-17.73532 -0.22527,-10e-4 -2.9327,2.35998 -6.01651,5.24748 -38.66571,36.20435 -44.83038,41.75 -46.41022,41.75 -0.74454,0 -2.10254,-0.82745 -3.01778,-1.83878 z"
       id="path1845" />
  </g>
</svg>
